<svg width="32" height="32" viewBox="0 0 32 32" fill="none" xmlns="http://www.w3.org/2000/svg">
<path d="M29 2H21C19.3438 2 18 3.34375 18 5V13C18 14.6562 19.3438 16 21 16H26V20C26 22.2062 24.2062 24 22 24H21.5C20.6688 24 20 24.6688 20 25.5V28.5C20 29.3312 20.6688 30 21.5 30H22C27.525 30 32 25.525 32 20V5C32 3.34375 30.6562 2 29 2ZM11 2H3C1.34375 2 0 3.34375 0 5V13C0 14.6562 1.34375 16 3 16H8V20C8 22.2062 6.20625 24 4 24H3.5C2.66875 24 2 24.6688 2 25.5V28.5C2 29.3312 2.66875 30 3.5 30H4C9.525 30 14 25.525 14 20V5C14 3.34375 12.6562 2 11 2Z" fill="#1C83F6"/>
</svg>
